<mxfile host="Electron" modified="2023-10-24T12:57:33.684Z" agent="Mozilla/5.0 (Windows NT 10.0; Win64; x64) AppleWebKit/537.36 (KHTML, like Gecko) draw.io/22.0.2 Chrome/114.0.5735.289 Electron/25.8.4 Safari/537.36" etag="pSsnfvYvNvJe9NIFvQiI" version="22.0.2" type="device">
  <diagram name="Page-1" id="Srl_9k27xqYql9wnE3ib">
    <mxGraphModel dx="1040" dy="661" grid="1" gridSize="10" guides="1" tooltips="1" connect="1" arrows="1" fold="1" page="1" pageScale="1" pageWidth="850" pageHeight="1100" math="0" shadow="0">
      <root>
        <mxCell id="0" />
        <mxCell id="1" parent="0" />
        <mxCell id="GCyTJqxhevGSqi6GzEb5-1" value="POLÍTICO" style="rounded=0;whiteSpace=wrap;html=1;" vertex="1" parent="1">
          <mxGeometry x="340" y="230" width="100" height="40" as="geometry" />
        </mxCell>
        <mxCell id="GCyTJqxhevGSqi6GzEb5-2" value="CARGO" style="rounded=0;whiteSpace=wrap;html=1;" vertex="1" parent="1">
          <mxGeometry x="290" y="330" width="100" height="40" as="geometry" />
        </mxCell>
        <mxCell id="GCyTJqxhevGSqi6GzEb5-3" value="CONCEJAL" style="rounded=0;whiteSpace=wrap;html=1;" vertex="1" parent="1">
          <mxGeometry x="410" y="330" width="100" height="40" as="geometry" />
        </mxCell>
        <mxCell id="GCyTJqxhevGSqi6GzEb5-4" value="Especialización Total y Parcial." style="text;html=1;align=center;verticalAlign=middle;resizable=0;points=[];autosize=1;strokeColor=none;fillColor=none;" vertex="1" parent="1">
          <mxGeometry x="385" y="288" width="190" height="30" as="geometry" />
        </mxCell>
        <mxCell id="GCyTJqxhevGSqi6GzEb5-5" value="COCHE OFICIAL" style="rounded=0;whiteSpace=wrap;html=1;" vertex="1" parent="1">
          <mxGeometry x="360" y="460" width="100" height="40" as="geometry" />
        </mxCell>
        <mxCell id="GCyTJqxhevGSqi6GzEb5-6" value="ASESOR" style="rounded=0;whiteSpace=wrap;html=1;" vertex="1" parent="1">
          <mxGeometry x="620" y="460" width="100" height="40" as="geometry" />
        </mxCell>
        <mxCell id="GCyTJqxhevGSqi6GzEb5-7" value="SUPERVISOR" style="rounded=0;whiteSpace=wrap;html=1;" vertex="1" parent="1">
          <mxGeometry x="550" y="530" width="100" height="40" as="geometry" />
        </mxCell>
        <mxCell id="GCyTJqxhevGSqi6GzEb5-8" value="PARTIDO POLÍTICO" style="rounded=0;whiteSpace=wrap;html=1;" vertex="1" parent="1">
          <mxGeometry x="160" y="130" width="100" height="40" as="geometry" />
        </mxCell>
        <mxCell id="GCyTJqxhevGSqi6GzEb5-9" value="BECARIO" style="rounded=0;whiteSpace=wrap;html=1;" vertex="1" parent="1">
          <mxGeometry x="100" y="240" width="100" height="40" as="geometry" />
        </mxCell>
        <mxCell id="GCyTJqxhevGSqi6GzEb5-10" value="REUNIÓN" style="rounded=0;whiteSpace=wrap;html=1;" vertex="1" parent="1">
          <mxGeometry x="70" y="400" width="100" height="40" as="geometry" />
        </mxCell>
        <mxCell id="GCyTJqxhevGSqi6GzEb5-11" value="DIETA" style="rounded=0;whiteSpace=wrap;html=1;" vertex="1" parent="1">
          <mxGeometry x="110" y="490" width="100" height="40" as="geometry" />
        </mxCell>
        <mxCell id="GCyTJqxhevGSqi6GzEb5-12" value="" style="rounded=0;whiteSpace=wrap;html=1;fillColor=none;" vertex="1" parent="1">
          <mxGeometry x="105" y="245" width="90" height="30" as="geometry" />
        </mxCell>
      </root>
    </mxGraphModel>
  </diagram>
</mxfile>
